<?xml version="1.0" encoding="utf-8"?>
<!-- Generator: Adobe Illustrator 16.0.0, SVG Export Plug-In . SVG Version: 6.00 Build 0)  -->
<!DOCTYPE svg PUBLIC "-//W3C//DTD SVG 1.1//EN" "http://www.w3.org/Graphics/SVG/1.1/DTD/svg11.dtd">
<svg version="1.1" id="Layer_1" xmlns="http://www.w3.org/2000/svg" xmlns:xlink="http://www.w3.org/1999/xlink" x="0px" y="0px"
	 width="512px" height="512px" viewBox="0 0 512 512" enable-background="new 0 0 512 512" xml:space="preserve">
<rect x="160" y="459" display="none" fill="#B3B3B3" width="96" height="27"/>
<rect x="256" y="459" display="none" fill="#B3B3B3" width="96" height="27"/>
<rect x="64" y="252" display="none" fill="#F2F2F2" width="192" height="164"/>
<polygon fill="#D44650" stroke="#E5E2D0" stroke-width="10" stroke-miterlimit="10" points="445,374.069 253,421.297 61,374.069 
	61,90.703 253,137.931 445,90.703 "/>
<path fill="#E5E2D0" d="M240.683,415.774l16.442,5.522c0-234-192.125-228-192.125-228v16.81
	C110,214.55,231.366,242.547,240.683,415.774z"/>
<path fill="#E5E2D0" d="M265.817,415.774l-16.692,5.522c0-234,191.875-228,191.875-228v16.81
	C397,214.55,275.134,242.547,265.817,415.774z"/>
<path fill="#E5E2D0" d="M207.666,290.296c0,33.142-26.858,60-60,60c-33.141,0-60-26.858-60-60s26.859-60,60-60
	C180.808,230.296,207.666,257.154,207.666,290.296z"/>
<path fill="#E5E2D0" d="M429.666,290.296c0,33.142-26.857,60-60,60c-33.141,0-60-26.858-60-60s26.859-60,60-60
	C402.809,230.296,429.666,257.154,429.666,290.296z"/>
</svg>
