<?xml version="1.0" encoding="utf-8"?>
<!-- Generator: Adobe Illustrator 16.0.0, SVG Export Plug-In . SVG Version: 6.00 Build 0)  -->
<!DOCTYPE svg PUBLIC "-//W3C//DTD SVG 1.1//EN" "http://www.w3.org/Graphics/SVG/1.1/DTD/svg11.dtd">
<svg version="1.1" xmlns="http://www.w3.org/2000/svg" xmlns:xlink="http://www.w3.org/1999/xlink" x="0px" y="0px" width="480px"
	 height="270px" viewBox="0 0 480 270" enable-background="new 0 0 480 270" xml:space="preserve">
<g id="Layer_1" display="none">
	<rect x="-10" y="-115" display="inline" fill="#607D8B" width="500" height="500"/>
</g>
<g id="Layer_2" display="none">
	<g display="inline">
		<path fill="#CCCCCC" d="M446,145c0,11-9,20-20,20H54c-11,0-20-9-20-20V-46c0-11,9-20,20-20h372c11,0,20,9,20,20V145z"/>
	</g>
	<rect x="34" y="-37" display="inline" fill="#34495E" width="412" height="352"/>
	<circle display="inline" fill="#E74C3C" cx="58.5" cy="-50.5" r="7.5"/>
	<circle display="inline" fill="#F1C40F" cx="80.5" cy="-50.5" r="7.5"/>
	<circle display="inline" fill="#2ECC71" cx="102.5" cy="-50.5" r="7.5"/>
	<circle display="inline" fill="#BDC3C7" cx="102.5" cy="30.5" r="37.5"/>
	<rect x="66" y="119" display="inline" fill="#BDC3C7" width="100" height="100"/>
	<rect x="190" y="119" display="inline" fill="#BDC3C7" width="100" height="100"/>
	<rect x="312" y="119" display="inline" fill="#BDC3C7" width="100" height="100"/>
	<rect x="190" y="18" display="inline" fill="#BDC3C7" width="222" height="25"/>
</g>
<g id="Layer_3">
	<g>
		<path fill="#E0E0E0" d="M446,239c0,11-9,20-20,20H54c-11,0-20-9-20-20V48c0-11,9-20,20-20h372c11,0,20,9,20,20V239z"/>
	</g>
	<rect x="34" y="57" fill="#EEEEEE" width="412" height="352"/>
	<circle fill="#E74C3C" cx="58.5" cy="43.5" r="7.5"/>
	<circle fill="#F1C40F" cx="80.5" cy="43.5" r="7.5"/>
	<circle fill="#2ECC71" cx="102.5" cy="43.5" r="7.5"/>
	<rect x="66" y="110" fill="#F2C100" width="100" height="100"/>
	<rect x="190" y="112" fill="#F2C100" width="222" height="25"/>
	<rect x="34" y="57" fill="#2C3E50" width="412" height="25"/>
	<rect x="301" y="160" fill="#F2C100" width="111" height="25"/>
</g>
</svg>
