<?xml version="1.0" encoding="utf-8"?>
<!-- Generator: Adobe Illustrator 16.0.0, SVG Export Plug-In . SVG Version: 6.00 Build 0)  -->
<!DOCTYPE svg PUBLIC "-//W3C//DTD SVG 1.1//EN" "http://www.w3.org/Graphics/SVG/1.1/DTD/svg11.dtd">
<svg version="1.1" xmlns="http://www.w3.org/2000/svg" xmlns:xlink="http://www.w3.org/1999/xlink" x="0px" y="0px" width="500px"
	 height="500px" viewBox="0 0 500 500" enable-background="new 0 0 500 500" xml:space="preserve">
<g id="bg" display="none">
	<rect display="inline" fill="#F1C40F" width="500" height="500"/>
</g>
<g id="coin" display="none">
	<circle fill="#E67E22" stroke="#E67E22" stroke-width="20" stroke-miterlimit="10" cx="262" cy="254" r="150"/>
	<circle display="inline" fill="#F1C40F" stroke="#F39C12" stroke-width="18" stroke-miterlimit="10" cx="250" cy="250" r="150"/>
	<g>
		<path display="inline" fill="#F39C12" d="M253.91,151.886c1.699-5.231,4.48-5.231,6.18,0l18.067,55.604
			c1.699,5.231,7.59,9.511,13.09,9.511h58.466c5.5,0,6.354,2.638,1.898,5.862l-47.277,34.209
			c-4.456,3.225-6.709,10.142-5.008,15.372l18.06,55.514c1.701,5.23-0.546,6.863-4.993,3.628l-47.306-34.404
			c-4.447-3.235-11.729-3.237-16.179-0.006l-47.296,34.345c-4.451,3.231-6.698,1.598-4.995-3.633l18.054-55.433
			c1.703-5.23-0.549-12.147-5.004-15.372l-47.278-34.219c-4.455-3.225-3.601-5.863,1.899-5.863h58.465
			c5.5,0,11.391-4.28,13.09-9.511L253.91,151.886z"/>
	</g>
	<g id="Layer_3" display="inline">
		<rect x="196.428" y="176.944" fill="none" width="107.143" height="146.111"/>
		<text transform="matrix(1 0 0 1 200.9111 307.6631)" fill="#F39C12" font-family="'OpenSans-Bold'" font-size="172">$</text>
	</g>
</g>
<g id="list" display="none">
	<circle display="inline" fill="#F1C40F" stroke="#F39C12" stroke-width="18" stroke-miterlimit="10" cx="250" cy="250" r="150"/>
	<g display="inline">
		<path fill="#F39C12" d="M319.201,192.331c-0.92-5.423-6.108-10.612-11.531-11.531l-40.739-6.909
			c-5.423-0.919-13.041,1.51-16.931,5.399L179.29,250c-3.889,3.889-3.889,10.252,0,14.142l56.568,56.568
			c3.889,3.89,10.253,3.89,14.143,0L320.71,250c3.89-3.889,6.319-11.508,5.399-16.931L319.201,192.331z M293.723,206.513
			c-2.93-2.929-2.928-7.678,0-10.606c2.93-2.929,7.678-2.93,10.607,0c2.93,2.929,2.928,7.678,0,10.606
			C301.4,209.442,296.652,209.442,293.723,206.513z"/>
	</g>
</g>
<g id="shipping" display="none">
	<circle display="inline" fill="#34495E" stroke="#2C3E50" stroke-width="18" stroke-miterlimit="10" cx="250" cy="250" r="150"/>
	<rect x="205" y="215" fill="#F2F2F2" width="90" height="70"/>
	<g>
		<path display="inline" fill="#F2F2F2" d="M330,305c0,5.522-4.478,10-10,10H210c-5.523,0-10-4.478-10-10l0,0
			c0-5.522,4.477-10,10-10h110C325.522,295,330,299.478,330,305L330,305z"/>
	</g>
	<circle fill="#F2F2F2" cx="229.667" cy="317.167" r="12.5"/>
	<circle fill="#F2F2F2" cx="294.667" cy="317.167" r="12.5"/>
	<path fill="#808080" d="M337.334,266.999c0,12.5,0.064,12.5-12.5,12.5c-12.5,0-12.5,0-12.5-12.5s0-12.5,12.5-12.5
		C331.737,254.499,337.334,260.096,337.334,266.999z"/>
	<g>
		<path display="inline" fill="#F2F2F2" d="M338.084,247.912c-7.955-8.62-23.227-11.229-23.227-11.229
			C309.436,235.757,305,239.5,305,245v60c0,5.5,4.5,10,10,10h25c5.5,0,10.097-4.499,10.215-9.998
			C350.215,305.002,351.136,262.055,338.084,247.912z M324.834,279.499c-12.5,0-12.5,0-12.5-12.5s0-12.5,12.5-12.5
			c6.903,0,12.5,5.597,12.5,12.5C337.334,279.499,337.398,279.499,324.834,279.499z"/>
	</g>
	<path fill="#F2F2F2" d="M205,215v70h90v-70H205z M257,273h-15v-22h-9l16.5-25h0.367L266,251h-9V273z"/>
	<g display="inline">
		<g>
			<path fill="#F2F2F2" d="M305,283c0,5.522-4.478,10-10,10H185c-5.523,0-10-4.478-10-10l0,0c0-5.522,4.477-10,10-10h110
				C300.522,273,305,277.478,305,283L305,283z"/>
		</g>
		<circle fill="#F2F2F2" cx="204.654" cy="295" r="12.5"/>
		<circle fill="#F2F2F2" cx="269.654" cy="295" r="12.5"/>
		<g>
			<path fill="#F2F2F2" d="M313.071,225.745c-7.955-8.62-23.227-11.229-23.227-11.229c-5.422-0.926-9.857,2.816-9.857,8.316v60
				c0,5.5,4.5,10,10,10h25c5.5,0,10.097-4.499,10.215-9.998C325.202,282.835,326.123,239.888,313.071,225.745z M299.821,257.332
				c-12.5,0-12.5,0-12.5-12.5s0-12.5,12.5-12.5c6.903,0,12.5,5.597,12.5,12.5C312.321,257.332,312.386,257.332,299.821,257.332z"/>
		</g>
		<path fill="#F2F2F2" d="M180,193v70h90v-70H180z M232,251h-15v-22h-9.013l16.5-25h0.367l16.133,25H232V251z"/>
	</g>
</g>
<g id="search" display="none">
	<circle display="inline" fill="#34495E" stroke="#2C3E50" stroke-width="18" stroke-miterlimit="10" cx="250" cy="250" r="150"/>
	<g display="inline">
		<g>
			<path fill="#F2F2F2" d="M315.642,305.499c3.89,3.89,3.89,10.253,0,14.143l0,0c-3.89,3.89-10.253,3.89-14.143,0l-30.963-30.963
				c-3.89-3.89-3.89-10.253,0-14.142s10.253-3.889,14.143,0.001L315.642,305.499z"/>
		</g>
		<g>
			<path fill="#F2F2F2" d="M278.216,275.216c3.89,3.89,5.496,8.646,3.571,10.571s-6.682,0.318-10.571-3.571l-33.713-33.713
				c-3.889-3.889-5.496-8.646-3.571-10.571s6.683-0.318,10.571,3.571L278.216,275.216z"/>
		</g>
		<circle fill="#CCCCCC" stroke="#F2F2F2" stroke-width="7" stroke-miterlimit="10" cx="227.287" cy="223.287" r="50"/>
		<circle fill="#F2F2F2" cx="211.787" cy="210.787" r="12.5"/>
	</g>
</g>
<g id="Layer_8">
	<circle fill="#D44650" stroke="#E5E2D0" stroke-width="18" stroke-miterlimit="10" cx="250" cy="250" r="150"/>
	<g>
		<g>
			<path fill="#F2F2F2" d="M213.768,303.587c-3.889,3.89-10.253,3.89-14.142,0l-38.891-38.89c-3.889-3.89-3.889-10.253,0-14.143
				l14.143-14.142c3.889-3.889,10.253-3.889,14.142,0l38.89,38.89c3.889,3.89,3.889,10.253,0,14.143L213.768,303.587z"/>
		</g>
		<g>
			<path fill="#F2F2F2" d="M339.265,195.199c3.89,3.889,3.89,10.253,0,14.143L229.664,318.942c-3.889,3.89-10.253,3.89-14.143,0
				l-14.142-14.142c-3.889-3.89-3.889-10.253,0-14.143L310.98,181.057c3.89-3.889,10.253-3.889,14.143,0L339.265,195.199z"/>
		</g>
	</g>
</g>
<g id="Layer_7" display="none">
	<circle display="inline" fill="#F1C40F" stroke="#F39C12" stroke-width="18" stroke-miterlimit="10" cx="250" cy="250" r="150"/>
	<g display="inline">
		<polygon fill="#F2F2F2" points="217.5,284 207.5,274 328.48,274 336.5,193 186.5,193 196.5,294 326.5,294 327.49,284 		"/>
		<circle fill="#F2F2F2" cx="224.75" cy="309.625" r="7.5"/>
		<circle fill="#F2F2F2" cx="298.75" cy="309.625" r="7.5"/>
		<rect x="163" y="183" fill="#F2F2F2" width="45" height="10"/>
	</g>
</g>
</svg>
